<svg width="267" height="103" viewBox="0 0 267 103" fill="none" xmlns="http://www.w3.org/2000/svg">
<path d="M29.1428 58.3801L43.9573 51.7866L52.4842 56.7318L54.2068 72.9553L43.6989 72.8686L45.2492 61.5902L43.4405 60.5491L34.5691 67.4897L29.1428 58.3801Z" fill="#B4C0D3"/>
<path d="M53.4321 56.0372L66.524 65.6672L71.6918 56.3842L61.1839 52.1331V50.0509L71.6918 45.7131L66.524 36.5168L53.4321 46.1469V56.0372Z" fill="#00D3AB"/>
<path d="M52.4842 45.3664L54.2068 29.1428L43.6989 29.3163L45.2492 40.5947L43.4405 41.6358L34.4829 34.6952L29.1428 43.718L43.9573 50.3115L52.4842 45.3664Z" fill="#4876EF"/>
<path d="M106.748 49.1048V64.304H112.403V44.934H104.168V49.1048H106.748Z" fill="#4876EE"/>
<path d="M106.571 42.2124C107.09 42.7542 107.879 43.0252 108.94 43.0252C110 43.0252 110.778 42.7542 111.272 42.2124C111.791 41.6466 112.05 40.9397 112.05 40.0916C112.05 39.2195 111.791 38.5126 111.272 37.9707C110.778 37.4052 110 37.1223 108.94 37.1223C107.879 37.1223 107.09 37.4052 106.571 37.9707C106.077 38.5126 105.829 39.2195 105.829 40.0916C105.829 40.9397 106.077 41.6466 106.571 42.2124Z" fill="#4876EE"/>
<path d="M87.0605 63.8796C88.6628 64.6102 90.6305 64.9756 92.963 64.9756C95.1544 64.9756 97.0396 64.6338 98.6186 63.9505C100.198 63.2672 101.411 62.3126 102.259 61.0874C103.131 59.8383 103.567 58.3892 103.567 56.7396C103.567 55.1374 103.155 53.7824 102.33 52.6747C101.529 51.5438 100.41 50.6601 98.972 50.024C97.5348 49.364 95.8733 48.9516 93.9882 48.7869L92.0091 48.6101C90.8308 48.5156 89.9822 48.1977 89.4636 47.6556C88.9457 47.1137 88.6861 46.4773 88.6861 45.7471C88.6861 45.1813 88.8278 44.663 89.1102 44.1917C89.3931 43.6968 89.8171 43.3081 90.3829 43.0252C90.972 42.7426 91.6909 42.6011 92.539 42.6011C93.4343 42.6011 94.1766 42.7659 94.7657 43.096C94.8955 43.1658 95.0184 43.2403 95.1345 43.3195L95.1624 43.3391C95.2057 43.369 95.2484 43.4 95.2893 43.4313C95.6474 43.7048 95.9325 44.029 96.1443 44.4038C96.4505 44.9223 96.6042 45.4995 96.6042 46.1358H102.259C102.259 44.4391 101.87 42.9663 101.093 41.7175C100.315 40.445 99.1963 39.4671 97.7352 38.7835C96.2974 38.0766 94.5653 37.7231 92.539 37.7231C90.6066 37.7231 88.9337 38.0533 87.5198 38.713C86.106 39.3493 84.9983 40.2683 84.1974 41.4699C83.4194 42.6717 83.0306 44.0975 83.0306 45.7471C83.0306 48.0327 83.7967 49.8706 85.3284 51.2611C86.8601 52.6514 88.9104 53.4525 91.4786 53.6646L93.423 53.8413C95.0013 53.9828 96.1443 54.3009 96.8512 54.7956C97.5582 55.2669 97.9116 55.9149 97.9116 56.7396C97.9116 57.1187 97.8496 57.4742 97.7255 57.8063C97.6333 58.0528 97.5069 58.2864 97.3464 58.507C96.969 59.0019 96.4152 59.3907 95.6849 59.6736C94.9547 59.9562 94.0474 60.0976 92.963 60.0976C91.7615 60.0976 90.7836 59.9328 90.0294 59.6027C89.2752 59.2492 88.71 58.7899 88.3326 58.2244C87.9792 57.6586 87.8027 57.0462 87.8027 56.3862H82.1825C82.1825 58.0593 82.5946 59.5438 83.4194 60.8398C84.2441 62.1126 85.4582 63.1257 87.0605 63.8796Z" fill="#4876EE"/>
<path d="M125.022 64.5513C123.066 64.5513 121.487 64.3156 120.286 63.8443C119.083 63.3494 118.2 62.5366 117.634 61.4056C117.092 60.2507 116.821 58.6957 116.821 56.7396V49.0695H113.888V44.934H116.821V39.7028H122.088V44.934H127.744V49.0695H122.088V56.952C122.088 57.8709 122.324 58.5779 122.795 59.0725C123.29 59.5438 123.985 59.7794 124.881 59.7794H127.744V64.5513H125.022Z" fill="#4876EE"/>
<path fill-rule="evenodd" clip-rule="evenodd" d="M134.553 64.1272C135.825 64.6927 137.286 64.9756 138.936 64.9756C140.561 64.9756 141.999 64.6927 143.248 64.1272C144.497 63.5617 145.534 62.7723 146.359 61.7591C147.183 60.7456 147.737 59.591 148.02 58.295H142.824C142.588 58.8841 142.14 59.379 141.481 59.7794C140.821 60.1801 139.972 60.3805 138.936 60.3805C138.294 60.3805 137.719 60.3045 137.214 60.1525C136.829 60.037 136.484 59.8773 136.179 59.6736C135.472 59.2023 134.953 58.5423 134.624 57.6942C134.532 57.4526 134.453 57.1998 134.387 56.9366C134.32 56.6699 134.266 56.3924 134.225 56.1036H148.373V54.1948C148.373 52.4274 147.996 50.8015 147.242 49.3171C146.488 47.8087 145.392 46.5952 143.955 45.6762C142.541 44.7336 140.797 44.2623 138.723 44.2623C137.145 44.2623 135.731 44.5452 134.482 45.1107C133.257 45.6526 132.232 46.3948 131.407 47.3374C130.582 48.28 129.946 49.3524 129.498 50.5542C129.074 51.7322 128.862 52.9693 128.862 54.2654V54.9723C128.862 56.2214 129.074 57.4466 129.498 58.6484C129.946 59.8267 130.582 60.8988 131.407 61.865C132.255 62.8076 133.304 63.5617 134.553 64.1272ZM134.322 52.6084C134.338 52.5336 134.355 52.4599 134.373 52.3873C134.422 52.1875 134.478 51.996 134.543 51.813C134.579 51.7088 134.618 51.6072 134.659 51.5085C135.012 50.6365 135.531 49.9768 136.214 49.5291C136.469 49.3617 136.746 49.2257 137.044 49.121C137.544 48.9454 138.104 48.8574 138.723 48.8574C139.69 48.8574 140.491 49.0814 141.127 49.5291C141.787 49.9531 142.282 50.5775 142.612 51.4023C142.638 51.4689 142.664 51.5366 142.688 51.6052C142.727 51.7145 142.764 51.8266 142.797 51.9416C142.847 52.1127 142.891 52.2897 142.929 52.4727C142.957 52.6076 142.982 52.7456 143.003 52.8871H134.268C134.285 52.7926 134.303 52.6998 134.322 52.6084Z" fill="#4876EE"/>
<path d="M150.707 64.304V44.934H155.196V49.8125C155.257 49.5225 155.326 49.2442 155.404 48.9773C155.47 48.7524 155.542 48.5356 155.62 48.3272C156.115 47.0076 156.857 46.018 157.847 45.358C158.837 44.6747 160.05 44.3332 161.488 44.3332H161.735C163.196 44.3332 164.41 44.6747 165.376 45.358C166.365 46.018 167.108 47.0076 167.603 48.3272L167.641 48.4268L167.675 48.5179C167.697 48.4536 167.721 48.3901 167.744 48.3272C168.262 47.0076 169.017 46.018 170.006 45.358C170.996 44.6747 172.21 44.3332 173.647 44.3332H173.895C175.355 44.3332 176.581 44.6747 177.57 45.358C178.584 46.018 179.35 47.0076 179.868 48.3272C180.386 49.6469 180.646 51.2964 180.646 53.2758V64.304H174.99V52.9576C174.99 51.8972 174.707 51.0372 174.142 50.3775C173.6 49.7175 172.822 49.3876 171.809 49.3876C170.796 49.3876 169.994 49.7294 169.405 50.4128C168.816 51.0725 168.521 51.9561 168.521 53.0638V64.304H162.831V52.9576C162.831 51.8972 162.548 51.0372 161.982 50.3775C161.441 49.7175 160.674 49.3876 159.685 49.3876C158.648 49.3876 157.835 49.7294 157.246 50.4128C156.657 51.0725 156.362 51.9561 156.362 53.0638V64.304H150.707Z" fill="#4876EE"/>
<path fill-rule="evenodd" clip-rule="evenodd" d="M195.753 60.5718V64.304H200.241V52.4274C200.241 50.6365 199.888 49.1756 199.181 48.0443C198.474 46.8897 197.438 46.0297 196.071 45.4642C194.728 44.8987 193.066 44.6158 191.087 44.6158C190.658 44.6158 190.21 44.6204 189.743 44.6297C189.467 44.6354 189.184 44.6425 188.895 44.6511C188.118 44.6747 187.363 44.71 186.633 44.7572L186.075 44.7948C185.789 44.8147 185.519 44.8344 185.266 44.8543C185.076 44.8691 184.895 44.8839 184.725 44.8987V49.6705C185.455 49.6233 186.268 49.576 187.164 49.5291C187.414 49.516 187.662 49.5038 187.909 49.4924C188.264 49.4759 188.616 49.4616 188.963 49.4491C189.237 49.4392 189.509 49.4303 189.779 49.4229C190.627 49.3993 191.311 49.3876 191.829 49.3876C192.866 49.3876 193.62 49.635 194.091 50.1299C194.563 50.6248 194.798 51.367 194.798 52.3568V52.4274H191.299C189.579 52.4274 188.059 52.6514 186.739 53.0991C185.42 53.5231 184.395 54.1948 183.664 55.1137C182.933 56.0094 182.569 57.164 182.569 58.5779C182.569 59.8739 182.863 60.9932 183.452 61.9358C184.041 62.8548 184.854 63.5617 185.891 64.0564C186.951 64.5513 188.177 64.7989 189.567 64.7989C190.91 64.7989 192.041 64.5513 192.96 64.0564C193.903 63.5617 194.633 62.8548 195.152 61.9358C195.243 61.781 195.328 61.6202 195.407 61.4534C195.519 61.2172 195.62 60.9691 195.708 60.7089L195.753 60.5718ZM194.798 57.1287V55.5734H191.264C190.274 55.5734 189.508 55.8207 188.966 56.3156C188.448 56.7869 188.188 57.4349 188.188 58.2597C188.188 58.6479 188.253 59.0008 188.382 59.3187C188.512 59.6374 188.707 59.9206 188.966 60.1685C189.508 60.6398 190.274 60.8754 191.264 60.8754C191.452 60.8754 191.634 60.866 191.81 60.8475C191.953 60.8324 192.093 60.8111 192.228 60.7835C192.487 60.7308 192.732 60.6554 192.96 60.5572C193.479 60.3216 193.903 59.9328 194.233 59.3907C194.563 58.8488 194.751 58.0946 194.798 57.1287Z" fill="#4876EE"/>
<path d="M203.626 64.304V44.934H208.115V51.3275C208.33 49.5023 208.872 48.0307 209.741 46.9134C210.92 45.4289 212.616 44.6867 214.831 44.6867H215.573V49.5644H214.159C212.604 49.5644 211.402 49.9884 210.554 50.8368C209.706 51.6616 209.281 52.8634 209.281 54.4421V64.304H203.626Z" fill="#4876EE"/>
<path d="M222.745 55.2552H224.618L230.733 64.304H237.096L229.342 53.191L235.717 44.934H229.779L222.745 54.1441V38.5009H217.09V64.304H222.745V55.2552Z" fill="#4876EE"/>
</svg>
